<?xml version="1.0" encoding="utf-8"?>
<!-- Generator: Adobe Illustrator 18.1.0, SVG Export Plug-In . SVG Version: 6.00 Build 0)  -->
<!DOCTYPE svg PUBLIC "-//W3C//DTD SVG 1.1//EN" "http://www.w3.org/Graphics/SVG/1.1/DTD/svg11.dtd">
<svg version="1.1" id="Layer_1" xmlns="http://www.w3.org/2000/svg" xmlns:xlink="http://www.w3.org/1999/xlink" x="0px" y="0px"
	 width="138px" height="19px" viewBox="-78 601.5 138 19" enable-background="new -78 601.5 138 19" xml:space="preserve">
<path display="none" fill="#F2F2F2" d="M59,601.5H-1v19h60c0.5,0,1-0.4,1-1v-17C60,601.9,59.5,601.5,59,601.5z"/>
<path display="none" fill="#FFFF00" d="M-1,601.5h-76c-0.5,0-1,0.5-1,1v17c0,0.6,0.5,1,1,1h76V601.5z"/>
<g>
	
		<linearGradient id="SVGID_1_" gradientUnits="userSpaceOnUse" x1="29" y1="-181.47" x2="29" y2="-199.47" gradientTransform="matrix(1 0 0 -1 0 420.6501)">
		<stop  offset="0" style="stop-color:#F368A6"/>
		<stop  offset="1" style="stop-color:#CB3A7B"/>
	</linearGradient>
	<path fill="url(#SVGID_1_)" d="M-1.5,620v-18H59c0.3,0,0.5,0.2,0.5,0.5v17c0,0.3-0.2,0.5-0.5,0.5H-1.5z"/>
	<path fill="#CB3A7B" d="M59,602.5v17H-1v-17H59 M59,601.5H-2v19h61c0.5,0,1-0.5,1-1v-17C60,602,59.6,601.5,59,601.5L59,601.5z"/>
</g>
<g>
	
		<linearGradient id="SVGID_2_" gradientUnits="userSpaceOnUse" x1="-39.5" y1="-181.47" x2="-39.5" y2="-199.47" gradientTransform="matrix(1 0 0 -1 0 420.6501)">
		<stop  offset="0" style="stop-color:#4C575F"/>
		<stop  offset="1" style="stop-color:#272D31"/>
	</linearGradient>
	<path fill="url(#SVGID_2_)" d="M-76,620c-0.8,0-1.5-0.7-1.5-1.5v-15c0-0.8,0.7-1.5,1.5-1.5h74.5v18H-76z"/>
	<path fill="#252C31" d="M-2,602.5v17h-74c-0.5,0-1-0.5-1-1v-15c0-0.5,0.4-1,1-1H-2 M-1,601.5h-75c-1.1,0-2,0.9-2,2v15
		c0,1.1,0.9,2,2,2h75l0,0V601.5L-1,601.5L-1,601.5z"/>
</g>
<g>
	<g opacity="0.75">
		<text transform="matrix(1 0 0 1 -73.0347 615.0851)" font-family="'PTSans-Caption'" font-size="10">dependencies</text>
	</g>
	<g>
		<text transform="matrix(1 0 0 1 -74.0347 614.0851)" fill="#FFFFFF" font-family="'PTSans-Caption'" font-size="10">dependencies</text>
	</g>
</g>
<g>
	<g opacity="0.75">
		<text transform="matrix(1 0 0 1 3.2603 615.0851)" fill="#C12975" font-family="'PTSans-Caption'" font-size="10">out of date</text>
	</g>
	<g>
		<text transform="matrix(1 0 0 1 2.2603 614.0851)" fill="#FFFFFF" font-family="'PTSans-Caption'" font-size="10">out of date</text>
	</g>
</g>
</svg>
